# xmcd
#
# Track frame offsets: 
#        150
#        17708
#        39451
#        55537
#        70252
#
# Disc length: 1128 seconds
#
# Revision: 0
# Processed by: cddbd v1.5.2PL0 Copyright (c) Steve Scherf et al.
# Submitted via: ExactAudioCopy v1.3
#
DISCID=37046605
DTITLE=The 44 Dealers - A Little Cookin´ From The Big Chief
DYEAR=2016
DGENRE=Chicago Blues
TTITLE0=Stroll Out West
TTITLE1=Midnite Blues
TTITLE2=I Want A Little Girl
TTITLE3=Bye Bye Baby
TTITLE4=Good Lover
EXTD=
EXTT0=
EXTT1=
EXTT2=
EXTT3=
EXTT4=
PLAYORDER=
